<?xml version="1.0" encoding="UTF-8"?><svg id="Layer_4" xmlns="http://www.w3.org/2000/svg" viewBox="0 0 4000 4000"><defs><style>.cls-1{fill:#020100;}.cls-2{fill:#fff;}.cls-3{fill:#e3b412;}.cls-4{fill:#b8d162;}.cls-5{fill:#72a9d4;}.cls-6{fill:#cc1c38;}.cls-7{fill:#d42744;}.cls-8{fill:#c7277f;}.cls-9{fill:#e0c8dc;}</style></defs><rect class="cls-3" x="1335.83" y="1281.99" width="912.54" height="1036.64"/><polygon class="cls-8" points="1239.19 2440.54 1335.38 2440.54 1335.38 1281.99 2248.37 1281.99 2248.37 2440.54 2340.65 2440.54 2340.65 1199.43 1239.19 1199.43 1239.19 2440.54"/><rect x="1335.2" y="1470.85" width="374.07" height="64.2"/><polygon points="2246.27 1535.05 2246.27 1470.85 1768.71 1470.85 1768.71 1535.05 1768.71 1899.95 1952.44 1899.95 1952.44 1839.13 1830.2 1839.13 1830.2 1535.05 2246.27 1535.05"/><rect class="cls-2" x="1335.2" y="1590.79" width="311.47" height="192.59"/><rect class="cls-1" x="1335.2" y="1591.28" width="106.63" height="106.63"/><rect class="cls-2" x="1936.47" y="1602.62" width="311.47" height="192.59"/><rect class="cls-1" x="1936.47" y="1603.1" width="106.63" height="106.63"/><rect class="cls-6" x="1643.71" y="2023.29" width="204.98" height="204.98"/><g><g><polygon class="cls-9" points="1578.71 1347.43 1578.69 1281.46 1548.45 1281.46 1548.45 1281.46 1517.81 1281.47 1517.83 1315.25 1517.83 1315.25 1517.84 1347.45 1548.47 1347.44 1548.47 1347.44 1578.71 1347.43"/><g><polygon class="cls-5" points="1456.94 1281.49 1426.7 1281.5 1426.7 1281.5 1396.07 1281.51 1396.08 1315.29 1396.08 1315.29 1396.09 1347.49 1456.96 1347.47 1456.94 1281.49"/><rect class="cls-4" x="1335.21" y="1281.52" width="60.87" height="65.98"/><polygon class="cls-7" points="1517.81 1281.47 1487.58 1281.48 1487.58 1281.48 1456.94 1281.49 1456.95 1315.27 1456.95 1315.27 1456.96 1347.47 1517.84 1347.45 1517.81 1281.47"/></g></g><g><polygon class="cls-9" points="1822.22 1347.46 1822.2 1281.48 1791.96 1281.49 1791.96 1281.49 1761.32 1281.5 1761.33 1315.28 1761.33 1315.28 1761.35 1347.48 1791.98 1347.47 1791.98 1347.47 1822.22 1347.46"/><g><polygon class="cls-5" points="1700.45 1281.52 1670.21 1281.53 1670.21 1281.53 1639.58 1281.54 1639.59 1315.32 1639.59 1315.32 1639.6 1347.52 1700.47 1347.5 1700.45 1281.52"/><rect class="cls-4" x="1578.72" y="1281.55" width="60.87" height="65.98"/><polygon class="cls-7" points="1761.32 1281.5 1731.08 1281.51 1731.08 1281.51 1700.45 1281.52 1700.46 1315.3 1700.46 1315.3 1700.47 1347.5 1761.35 1347.48 1761.32 1281.5"/></g></g><g><polygon class="cls-9" points="2065.73 1347.4 2065.7 1281.43 2035.47 1281.44 2035.47 1281.44 2004.83 1281.45 2004.84 1315.22 2004.84 1315.22 2004.85 1347.42 2035.49 1347.41 2035.49 1347.41 2065.73 1347.4"/><g><polygon class="cls-5" points="1943.96 1281.47 1913.72 1281.47 1913.72 1281.47 1883.09 1281.48 1883.1 1315.26 1883.1 1315.26 1883.11 1347.46 1943.98 1347.44 1943.96 1281.47"/><rect class="cls-4" x="1822.23" y="1281.49" width="60.87" height="65.98"/><polygon class="cls-7" points="2004.83 1281.45 1974.59 1281.46 1974.59 1281.46 1943.96 1281.47 1943.97 1315.24 1943.97 1315.24 1943.98 1347.44 2004.85 1347.42 2004.83 1281.45"/></g></g><g><polygon class="cls-5" points="2187.47 1281.44 2157.23 1281.45 2157.23 1281.45 2126.6 1281.46 2126.61 1315.23 2126.61 1315.23 2126.62 1347.43 2187.49 1347.41 2187.47 1281.44"/><rect class="cls-4" x="2065.74" y="1281.47" width="60.87" height="65.98"/><polygon class="cls-7" points="2248.34 1281.42 2218.1 1281.43 2218.1 1281.43 2187.47 1281.44 2187.48 1315.21 2187.48 1315.21 2187.49 1347.41 2248.36 1347.39 2248.34 1281.42"/></g></g></svg>