<?xml version="1.0" encoding="UTF-8"?><svg id="Layer_2" xmlns="http://www.w3.org/2000/svg" viewBox="0 0 441.14 175.37"><defs><style>.cls-1{fill:#fff;}</style></defs><g id="Layer_3"><path class="cls-1" d="M385.29,64.04c-21.37-12.39-62.51-2.94-66.22-4.96-3.72-2.01-4.43-5.81-12.83-9.6-5.84-2.64-9.74-.12-15.28-2.73-5.53-2.6-3.4-15.74-25.71-21.46-8.25-2.11-14.37-2.16-19.37-1.27-.68-13.38-11.75-24.03-25.31-24.03s-24.62,10.64-25.31,24.03c-4.99-.89-11.12-.84-19.37,1.27-22.32,5.72-20.18,18.86-25.71,21.46-5.53,2.6-9.44,.08-15.28,2.73-8.39,3.8-9.11,7.59-12.83,9.6-3.72,2.01-44.85-7.43-66.22,4.96S-5.2,103.52,.57,115.45c3.71,7.69,45.84-9.16,78.08-21.13,18.98-7.05,34.25-14.49,36.82-9.62,3.25,6.15-7.47,6.79-16.72,15.65-7.17,6.86-8.71,15.59-7.28,22.16,2.1,9.65,8.05,13.22,8.52,18.02,.46,4.8-8.05,13.47-7.12,19.36,.93,5.88,32.37,19.05,36.39,14.56s-1.27-10.75,4.1-14.25c7.77-5.07,22.77-18.64,38.95-18.74,19.63-.12,29.63,29.08,48.85,28.8,16.16-.23,28.5-28.14,47.67-28.8,14.65-.51,31.18,13.67,38.95,18.74,5.36,3.5,.07,9.76,4.1,14.25s35.46-8.67,36.39-14.56c.93-5.88-7.59-14.56-7.12-19.36,.46-4.8,6.42-8.37,8.52-18.02,1.43-6.57,.42-15.9-7.28-22.16-8.63-7.02-20.22-9.63-16.72-15.65,2.4-4.13,16.21,1.33,36.28,8.9,31.89,12.02,75.01,29.34,78.63,21.85,5.76-11.93-33.91-39.02-55.29-51.41ZM204.61,25.34c0-8.81,7.14-15.96,15.95-15.96s15.96,7.14,15.96,15.96c0,.55-.03,1.1-.08,1.64-4.95,2.1-9.2,4.39-14.81,4.48h-2.12c-5.61-.09-9.87-2.38-14.81-4.48-.06-.54-.08-1.09-.08-1.64Z"/></g></svg>