<?xml version="1.0" encoding="utf-8"?>
<!-- Generator: Adobe Illustrator 26.5.0, SVG Export Plug-In . SVG Version: 6.00 Build 0)  -->
<svg version="1.1" id="Layer_1" xmlns="http://www.w3.org/2000/svg" xmlns:xlink="http://www.w3.org/1999/xlink" x="0px" y="0px"
	 viewBox="0 0 474.4 547.7" style="enable-background:new 0 0 474.4 547.7;" xml:space="preserve">
<style type="text/css">
	.st0{fill:#FFFFFF;}
</style>
<path class="st0" d="M254.6,109.7c14.9-7.3,25.2-22.7,25.2-40.4c0-24.9-20.2-44.1-45.1-44.1c-24.9,0-45.1,19.2-45.1,44.1
	c0,17.7,10.2,32.9,25,40.4L50.4,204.5v212.6l178.5,103l5.4,3.4l3.8-2.1l180.6-104.2V204.6L254.6,109.7z M234.7,99.8
	c-16.5,0-29.9-13.4-29.9-29.9c0-16.5,13.4-29.9,29.9-29.9s29.9,13.4,29.9,29.9C264.6,86.4,251.3,99.8,234.7,99.8z"/>
<g id="Layer_3">
	<g id="iso">
		<g>
			<path d="M415.1,202.9l-160.5-92.8c14.8-7.4,24.9-22.6,24.9-40.2c0-24.8-20.1-44.9-44.9-44.9s-44.9,20.1-44.9,44.9
				c0,17.7,10.2,33,25.1,40.3L54.3,202.8c-2.4,1.3-3.8,3.8-3.8,6.5v204c0,2.7,1.5,5.2,3.8,6.5L229,520.6l1.7,1.1
				c1.2,0.7,2.5,1.1,3.9,1.1c1.2,0,2.5-0.3,3.6-0.9l2-1.1l0.1-0.1L415,419.9c2.4-1.3,3.8-3.8,3.8-6.5v-204
				C418.8,206.7,417.4,204.2,415.1,202.9z M256.4,193.6l138.8,26.1l-34.9,141L256.4,193.6z M345.5,377l-219.2-0.4l108.5-177.7
				L345.5,377z M245.3,169.9v-40.7l104.6,60.3L245.3,169.9z M204.7,69.9c0-16.5,13.4-29.9,29.9-29.9s29.9,13.4,29.9,29.9
				s-13.4,29.9-29.9,29.9S204.7,86.4,204.7,69.9z M224.1,129.2l0.1,40.8l-105.1,19.8L224.1,129.2z M213.2,193.6L111.5,360.4
				L74.6,219.8L213.2,193.6z M71.7,292l23.5,89.7L71.7,394V292z M83,411.9l22.5-11.9l61.8,60.5L83,411.9z M234.8,497l-101.3-99.2
				l204.8,0.4L234.8,497z M305.8,458.4l60.6-57.9l19.9,11.4L305.8,458.4z M397.7,394l-20.8-12l20.8-83.9V394z"/>
		</g>
	</g>
</g>
</svg>
