<?xml version="1.0" encoding="UTF-8"?><svg id="Layer_2" xmlns="http://www.w3.org/2000/svg" viewBox="0 0 2550.07 2529.39"><defs><style>.cls-1{fill:#ffc817;}</style></defs><g id="Layer_1-2"><g><path class="cls-1" d="M2253.05,1437.77c-146.11-176.12-254.92,59.25-446.16-33.6-2.61,71.5-52.64,222.19-121.43,265.87,305.63,143.74,283.41-178.12,497.11-24.16,143.55,92.43,259.95,44.47,367.49-49.38-244.7,60.09-228.13-68.9-297.02-158.74Z"/><path class="cls-1" d="M1997.94,1292.55c72.42,7.19,109.2-33.41,134.33-89.63-54.71,59.58-112.94,19.25-144.05-2.58-88.37-38.3-88.72,71.62-179.79,73.49,9.44,36.51,10.33,71.47,.18,123.87,144.72-4.75,78.59-122.02,189.33-105.14Z"/><path class="cls-1" d="M1670.08,943.46c54.73,46.08,142.68,178.27,134.75,259.37,301.43-152.35,34.12-333,287.02-406.6,161.21-56.21,195.09-177.47,187.34-319.99-103.3,229.83-194.75,137.35-307.95,136.33-228.74,6.71-110.25,237.35-301.16,330.89Z"/><path class="cls-1" d="M1666.03,938.12c85.36-116.96-47.77-137.05,33.71-213.92,50.25-52.65,40.9-106.62,12.07-161.04,13.27,79.79-54.37,100.85-90.72,111.92-84.58,46.06,1.81,114-52.78,186.92,34.59,15.04,62.68,35.86,97.73,76.12Z"/><path class="cls-1" d="M1222.81,767.63c70.01-14.76,228.32-2.67,287.35,53.5,65.53-331.33-241.4-231.9-143.7-476.5,54.96-161.64-19.74-262.99-136.82-344.63,117.51,222.9-11.66,238.03-82.17,326.6-135.54,184.38,119.16,233.01,75.33,441.03Z"/><path class="cls-1" d="M981.16,641c-15.78,95.01,90.95,68.76,114.8,156.67,33.14-18,66.85-27.31,120.15-30.14-39.62-139.27-137.41-46.74-147.82-158.27-10.55-72.01-58.84-97.88-119.47-108.66,71.05,38.67,46,104.93,32.34,140.39Z"/><path class="cls-1" d="M414.97,799.67c61.85,220.32,256.98,49.56,393.92,212.16,31.47-64.25,138.46-181.57,219.07-193.5-220.74-255.62-331.36,47.45-463.96-180.12-93.54-142.83-219.39-146.36-355.8-104.36,247.99,44.63,180.39,155.73,206.78,265.82Z"/><path class="cls-1" d="M588.96,1036.1c-63.24-36.02-113.35-13.89-159.17,27.25,74.21-32.18,111.01,28.35,130.54,60.95,65.15,70.93,110.18-29.34,194.14,5.99,6.22-37.2,19.63-69.49,50.22-113.24-134.14-54.53-121.43,79.51-215.72,19.05Z"/><path class="cls-1" d="M746.48,1488.35c-31.26-64.36-57.83-220.89-17.61-291.76-337.34,16.57-166.62,290.33-427.58,254.71-170.14-14.22-250.4,82.77-301.29,216.13,187.85-167.94,233.78-46.27,336.77,.71,211.69,86.91,197.26-171.99,409.71-179.79Z"/><path class="cls-1" d="M806.32,1604.17c-25.48-27.8-42.68-58.26-58.31-109.29-125.55,72.13-12.11,144.63-117.8,181.72-67.32,27.66-80.73,80.77-76.53,142.21,20.33-78.29,90.68-70.02,128.4-65.34,96-7.67,44.71-104.88,124.25-149.29Z"/><path class="cls-1" d="M842.81,1665.16c-194.63,276.03,126.2,310.04-62.53,493.75-115.95,125.31-88.94,248.28-15.18,370.48-16.69-251.42,107.47-212.7,207.9-264.94,198.82-113.31-14.08-261.33,110.56-433.54-69.96-14.99-209.67-90.42-240.75-165.75Z"/><path class="cls-1" d="M1211.67,1855.06c-37.6,2.96-72.18-2.24-122.02-21.33-20.46,143.35,106.52,98.58,70.67,204.71-19.65,70.07,13.94,113.35,64.95,147.85-49.18-64.22,.66-114.57,27.56-141.41,53.06-80.37-55.12-99.81-41.15-189.82Z"/><path class="cls-1" d="M1834.6,2130.22c33.11-226.43-214.6-149.8-273.57-354.04-54.88,45.9-200.34,109.55-278.83,87.67,97.69,323.31,322.01,91.43,350.58,353.26,27.36,168.52,140.89,222.94,282.6,240.05-208.4-141.64-101.45-215.64-80.78-326.94Z"/><path class="cls-1" d="M1833.85,1774.53c-30.67-91.3-112.59-18.01-174.92-84.44-20.81,31.45-46.2,55.5-91.94,83.02,100.36,104.37,143.27-23.24,204.82,70.34,43.12,58.63,97.9,58.8,156.5,39.85-80.89-.79-89.88-71.05-94.47-108.77Z"/><path class="cls-1" d="M1818.79,1238.24c-9.33-69.03-30.9-134.71-64.09-195.19-32.07-58.44-73.99-110.33-124.61-154.21-102.42-88.82-233.08-137.74-367.91-137.74-25.26,0-50.87,1.73-76.11,5.14-75.26,10.17-146.25,34.77-211.02,73.12-31.13,18.43-60.64,40.02-87.71,64.18-26.83,23.94-51.49,50.59-73.3,79.24-21.83,28.64-40.97,59.49-56.93,91.71-16.1,32.52-29.08,66.7-38.58,101.61-19.77,72.62-24.63,147.6-14.45,222.86,9.33,69.02,30.89,134.7,64.09,195.19,32.07,58.43,73.99,110.32,124.6,154.22,102.42,88.82,233.08,137.74,367.91,137.74,25.27,0,50.88-1.73,76.11-5.14,75.26-10.17,146.25-34.78,211.02-73.12,31.13-18.43,60.65-40.02,87.72-64.18,26.83-23.94,51.49-50.59,73.3-79.23,21.82-28.64,40.97-59.5,56.92-91.71,16.1-32.52,29.09-66.71,38.59-101.61,19.77-72.62,24.63-147.6,14.45-222.85Zm-252.51-287.14c-.81,2.99-1.92,5.91-3.3,8.69-1.36,2.76-3,5.4-4.87,7.85-1.87,2.45-3.98,4.73-6.27,6.78-2.32,2.07-4.84,3.92-7.51,5.49-5.54,3.28-11.62,5.39-18.06,6.26-2.16,.29-4.35,.44-6.51,.44-11.54,0-22.72-4.19-31.48-11.79-4.33-3.76-7.92-8.2-10.66-13.2-2.84-5.18-4.69-10.8-5.48-16.7-.87-6.44-.45-12.86,1.24-19.07,.81-2.99,1.92-5.91,3.3-8.69,1.36-2.76,3-5.4,4.87-7.85,1.87-2.45,3.98-4.73,6.27-6.78,2.32-2.07,4.84-3.91,7.51-5.49,5.54-3.28,11.62-5.39,18.06-6.26,2.16-.29,4.35-.44,6.51-.44,11.54,0,22.72,4.19,31.48,11.79,4.33,3.76,7.92,8.19,10.66,13.2,2.84,5.18,4.69,10.79,5.48,16.7,.87,6.44,.45,12.85-1.24,19.07Z"/></g></g></svg>